<?xml version="1.0" encoding="utf-8"?>
<!-- Generator: $$$/GeneralStr/196=Adobe Illustrator 27.6.0, SVG Export Plug-In . SVG Version: 6.00 Build 0)  -->
<svg version="1.1" xmlns="http://www.w3.org/2000/svg" xmlns:xlink="http://www.w3.org/1999/xlink" x="0px" y="0px"
	 viewBox="0 0 1024 1024" style="enable-background:new 0 0 1024 1024;" xml:space="preserve">
<style type="text/css">
	.st0{enable-background:new    ;}
	.st1{fill:#FFFFFF;}
</style>
<g id="矩形_1_拷贝_2_00000114046625627610376670000002635505448747957663_" class="st0">
	<g id="矩形_1_拷贝_2">
		<g>
			<rect x="160" y="160" width="800" height="800"/>
		</g>
	</g>
</g>
<g id="矩形_1_00000000924217547539109070000012848369518896047005_" class="st0">
	<g id="矩形_1">
		<g>
			<rect x="112" y="112" width="800" height="800"/>
		</g>
	</g>
</g>
<g id="矩形_1_拷贝_00000038391392063769585380000000473215896955938749_" class="st0">
	<g id="矩形_1_拷贝">
		<g>
			<rect x="144" y="144" class="st1" width="736" height="736"/>
		</g>
	</g>
</g>
<g id="Pa">
	<g>
		<path d="M236.12,292.89h138.24c27.98,0,51.37,2.76,70.14,8.29c18.77,5.53,33.87,14.34,45.31,26.42
			c11.43,12.09,19.54,27.75,24.32,47c4.78,19.26,7.17,42.6,7.17,70.04c0,29.9-2.65,54.99-7.94,75.26
			c-5.3,20.28-13.82,36.56-25.6,48.84s-26.97,21.1-45.57,26.42c-18.61,5.33-41.22,7.99-67.84,7.99h-36.35v116.12H236.12V292.89z
			 M359.52,506.08c21.16,0,36.1-4.09,44.8-12.29c8.7-8.19,13.06-23.55,13.06-46.08c0-23.75-4.44-39.83-13.31-48.23
			c-8.88-8.39-23.73-12.6-44.54-12.6h-21.5v119.19H359.52z"/>
		<path d="M652.89,381.97c24.23,0,44.88,2.15,61.95,6.45c17.06,4.3,31.06,11.06,41.98,20.28c10.92,9.22,18.86,20.89,23.81,35.02
			c4.94,14.13,7.42,30.83,7.42,50.07v225.48h-88.06l-7.68-30.72c-2.05,4.1-5.12,8.29-9.22,12.59c-4.1,4.3-9.39,8.29-15.87,11.98
			c-6.49,3.69-14.26,6.65-23.3,8.91c-9.05,2.25-19.71,3.38-32,3.38c-29.02,0-51.97-8.19-68.86-24.58
			c-16.9-16.38-25.34-42.39-25.34-78.03c0-38.09,9.38-65.02,28.16-80.79c18.77-15.76,48.3-23.65,88.58-23.65h56.83
			c-0.34-8.6-1.37-15.36-3.07-20.27c-1.71-4.92-4.53-8.8-8.45-11.67c-3.93-2.86-9.14-4.7-15.62-5.53
			c-6.49-0.82-14.85-1.23-25.09-1.23c-20.14,0-39.09,1.84-56.83,5.53V387.5c10.58-2.04,22.53-3.48,35.84-4.3
			C631.39,382.39,642.99,381.97,652.89,381.97z M642.65,638.79c11.94,0,22.1-2.04,30.46-6.14c8.36-4.09,14.42-9,18.18-14.75v-25.8
			h-38.91c-15.36,0-25.94,1.75-31.74,5.22c-5.81,3.48-8.7,10.14-8.7,19.97c0,8.6,2.64,14.34,7.94,17.2
			C625.15,637.36,632.75,638.79,642.65,638.79z"/>
	</g>
</g>
</svg>
